<svg xmlns="http://www.w3.org/2000/svg" width="32" height="32"><path d="M5.738 20.083c.357-2.035 2.452-4.916 4.464-6.44s3.94-1.69 5.738-1.56c1.798.131 3.465.56 5.131 1.977 1.667 1.416 3.334 3.821 3.655 5.714.322 1.893-.702 3.274-2.5 4.19-1.797.917-4.369 1.37-6.845 1.381-2.476.012-4.857-.416-6.738-1.226s-3.262-2-2.905-4.036" style="fill:#2563eb" transform="matrix(1.21313 0 0 1.47806 -2.71 -8.902)"/><path d="M13.638 19.577a2.41 3.09 0 0 1-2.924 2.238 2.41 3.09 0 0 1-1.752-3.743 2.41 3.09 0 0 1 2.918-2.252 2.41 3.09 0 0 1 1.763 3.735M22.637 19.544a2.41 3.09 0 0 1-2.924 2.239 2.41 3.09 0 0 1-1.752-3.744 2.41 3.09 0 0 1 2.918-2.252 2.41 3.09 0 0 1 1.762 3.735" style="fill:#fffffb;fill-opacity:1;stroke-width:1.02996"/><path d="M9.032 10.985c-.496-1.288-1.254-4.116-2.054-5.1-.8-.986-1.641-.127-2.12.193s-.599.1-.32-.312c.277-.412.95-1.018 1.49-1.187.538-.168.942.101 1.262.38.32.277.556.563.993 1.7.438 1.136 1.078 3.123 1.28 4.242.202 1.12-.034 1.372-.53.084" style="fill:#2563eb;fill-opacity:1"/><path d="M5.206 6.924A1.429 1.402 0 0 1 3.474 7.94 1.429 1.402 0 0 1 2.435 6.24a1.429 1.402 0 0 1 1.73-1.021 1.429 1.402 0 0 1 1.044 1.694" style="fill:#2563eb;fill-opacity:1"/><path d="M9.032 10.985c-.496-1.288-1.254-4.116-2.054-5.1-.8-.986-1.641-.127-2.12.193s-.599.1-.32-.312c.277-.412.95-1.018 1.49-1.187.538-.168.942.101 1.262.38.32.277.556.563.993 1.7.438 1.136 1.078 3.123 1.28 4.242.202 1.12-.034 1.372-.53.084" style="fill:#2563eb;fill-opacity:1" transform="matrix(-1 0 0 1 30.335 .273)"/><path d="M-25.129 7.197a1.429 1.402 0 0 1-1.733 1.016A1.429 1.402 0 0 1-27.9 6.514a1.429 1.402 0 0 1 1.73-1.022 1.429 1.402 0 0 1 1.044 1.695" style="fill:#2563eb;fill-opacity:1" transform="scale(-1 1)"/><path d="M12.21 24.155c.661.51 2.092 1.335 3.468 1.326 1.377-.008 2.698-.85 3.28-1.347.58-.496.42-.648-.24-.358-.662.29-1.823 1.023-3.065 1.01s-2.563-.77-3.279-1.052-.825-.088-.164.421" style="fill:#fff;fill-opacity:1" transform="matrix(.81732 0 0 1.07747 3.07 -2.954)"/></svg>